<svg version="1.2" baseProfile="tiny-ps" xmlns="http://www.w3.org/2000/svg" viewBox="0 0 393 145" width="393" height="145"><title>Новый проект</title><style>tspan { white-space:pre }</style><path fill="#000000" aria-label="leton"  d="M16.5 10.75C15.9 8.35 15.45 6.7 15 5.65C14.4 3.55 13.2 2.65 11.25 2.8L10.2 2.95C8.4 8.5 7.35 18.25 7.35 32.2C7.35 36.85 6.9 43.9 6 53.35C5.1 64 4.5 71.05 4.35 74.65C3.9 83.2 3.45 92.8 3.15 103.45C2.85 113.05 2.7 118.15 2.85 119.05C4.35 131.5 7.95 137.35 13.65 136.75C15.15 136.15 16.05 135.7 16.05 135.25C14.1 122.2 12.75 113.5 12.3 109.15C11.85 105.7 11.85 103.75 12.3 103.3L16.5 10.75ZM83.7 102.85C82.65 103.9 78.6 107.35 71.25 110.2C63.9 112.9 59.4 113.8 57.75 113.8L53.1 113.8C52.2 113.2 51.75 111.25 51.75 109.9C51.75 106.3 54.15 103.3 58.8 101.2C62.4 99.55 66.3 98.65 70.65 98.65C76.65 98.65 81 100.15 83.7 102.85ZM114 132.1C113.1 130.6 111.75 129.25 109.8 128.2C103.8 127.3 100.8 126.85 101.1 126.85L77.85 126.85C75.9 126.85 70.95 127 66.3 125.8C61.05 124.45 56.85 123.25 56.25 122.2C57.3 121.3 58.35 121.45 58.35 120.85C61.8 121.15 70.5 118.15 79.2 115.15C88.5 111.85 93.15 108.85 93.15 106.15C93.15 101.2 91.2 97.3 87.3 94.45C83.4 91.6 78.15 90.1 71.55 90.1C63.75 90.1 57.3 91.9 51.9 95.2C45.6 99.25 42.45 104.95 42.45 112.3C42.45 115.75 43.05 119.65 44.55 123.7C45.75 127.45 51.3 130.3 60.9 132.7C68.25 134.35 75 135.25 81 135.25L106.8 135.25C109.8 135.25 112.2 134.2 114 132.1ZM205.2 81.7L175.65 82L176.85 55.9C177 51.4 177.75 48.55 178.05 46.75L181.2 28C181.8 23.65 182.25 21.1 182.55 20.2L181.35 11.35C178.05 12.85 176.4 13.9 176.1 14.5C175.5 17.05 175.2 19 174.9 20.05C172.2 34.15 170.4 45.7 169.5 55C167.85 73.45 166.2 83.05 164.7 83.95C162.15 85.3 154.35 86.95 141.15 88.6C130.5 90.1 125.1 92.35 125.1 95.35C125.1 96.1 126.3 97.3 128.55 99.4C130.95 101.35 132.45 102.4 133.2 102.4L136.35 102.4C136.2 100.6 136.5 99.4 137.1 98.95C139.05 97.45 140.25 96.7 140.7 96.7C142.65 96.4 144.15 96.4 145.2 96.25C150.75 95.35 153.6 94.9 153.6 94.9C159 94.3 162.15 93.85 162.9 93.55C163.95 94.3 164.4 95.35 164.4 96.85C164.4 99.25 164.25 102.55 163.65 106.45C163.2 110.5 162.9 113.65 162.9 116.05C162.9 122.65 163.95 128.35 165.9 133.3C167.55 134.05 168.6 134.5 169.05 134.5C171 131.95 171.9 128.8 171.9 124.9C171.9 124.15 171.75 122.65 171.6 120.1C171.3 117.7 171.15 116.05 171.15 115.3C171.15 112.3 171.45 110.05 171.6 108.4C172.35 101.5 172.65 97.3 172.8 95.8C173.25 94.15 174.45 92.95 176.4 92.05C184.35 88.45 193.95 86.5 205.2 86.5ZM289.8 108.7C289.8 112.6 289.05 115.45 287.4 117.1C283.95 120.85 277.95 123.7 269.7 125.5C260.55 127.6 253.5 128.5 248.4 128.5C245.1 128.5 240.75 127.6 235.35 125.8C229.05 123.7 225.9 121.3 225.9 118.75C225.9 115.6 231.75 109.9 243.15 101.65C246.45 99.4 250.2 97.75 254.4 96.85C265.2 94.75 270.9 93.7 271.5 93.7C275.4 93.7 279.3 95.2 283.35 98.35C287.7 101.65 289.8 105.1 289.8 108.7ZM297.3 109.3C297.3 107.35 296.55 104.35 294.9 100.45C293.25 96.55 291.75 93.85 290.25 92.35C288.9 91 286.5 89.35 282.75 87.7C279 86.05 276.15 85.15 274.35 85.15C267.45 85.15 259.95 86.35 252.15 88.6C242.85 91.3 236.4 94.6 232.8 98.95C227.4 104.35 223.5 107.95 220.95 109.75C217.95 112.45 216.45 115.15 216.45 117.7C216.45 123.55 220.35 128.35 228.3 132.25C234.75 135.4 241.35 137.05 247.95 137.05C253.65 137.05 262.05 135.55 272.7 132.7C285 129.4 292.05 126.1 294.15 122.65C296.25 119.05 297.3 114.55 297.3 109.3ZM333.15 102.4C333.15 101.95 333 101.65 333 101.65C333 101.95 333.15 102.1 333.15 102.4ZM390.45 96.4C390.45 94.9 389.85 93.4 388.5 91.75C387.3 90.25 385.95 89.5 384.45 89.5C379.05 89.5 370.95 93.1 359.85 100.15C352.05 105.25 344.4 110.95 337.35 117.25C335.25 118.9 333.45 120.55 331.95 122.05L332.1 121C332.85 110.05 333.15 103.6 333 101.65C332.7 100.45 331.8 99.55 330.6 98.95C325.95 100.15 323.7 109.9 323.7 128.35C323.7 129.55 323.7 130.9 323.85 131.95C323.85 132.1 323.85 132.25 323.85 132.25L323.85 137.2C327.3 137.2 329.55 136.6 330.75 135.25C333.75 132.1 335.7 129.85 336.75 128.5C343.35 121.15 348.9 115.75 353.55 112.3C356.25 110.35 360.3 107.95 366 104.95C372.45 101.5 376.65 99.7 378.75 99.7C380.4 99.7 381.15 101.2 381.15 104.05C381.15 105.55 380.55 109.3 379.2 115.45C378 121.6 377.4 125.5 377.4 127C377.4 129.85 377.85 133.15 378.75 136.75C379.95 141.55 381.6 143.95 383.4 143.95C384.9 143.95 385.65 143.65 385.8 142.75C387.15 132.1 388.05 122.5 388.95 113.95C390 103.3 390.45 97.45 390.45 96.4Z" /></svg>