<svg version="1.2" baseProfile="tiny-ps" xmlns="http://www.w3.org/2000/svg" viewBox="0 0 120 120" width="120" height="120"><title>Новый проект</title><style>tspan { white-space:pre }</style><path fill="#000000" aria-label="le
ton"  d="M13.77 5.85C13.52 5 13.33 4.42 13.15 4.05C12.9 3.31 12.4 2.99 11.58 3.04L11.15 3.1C10.4 5.05 9.96 8.49 9.96 13.41C9.96 15.05 9.77 17.53 9.4 20.86C9.02 24.62 8.77 27.1 8.71 28.37C8.52 31.39 8.33 34.77 8.21 38.53C8.08 41.91 8.02 43.71 8.08 44.02C8.71 48.41 10.21 50.48 12.58 50.26C13.21 50.05 13.58 49.89 13.58 49.74C12.77 45.14 12.21 42.07 12.02 40.53C11.83 39.32 11.83 38.63 12.02 38.47L13.77 5.85ZM41.77 38.31C41.34 38.68 39.65 39.9 36.59 40.9C33.52 41.86 31.65 42.17 30.96 42.17L29.02 42.17C28.65 41.96 28.46 41.27 28.46 40.8C28.46 39.53 29.46 38.47 31.4 37.73C32.9 37.15 34.52 36.83 36.34 36.83C38.84 36.83 40.65 37.36 41.77 38.31ZM54.4 48.63C54.03 48.1 53.46 47.62 52.65 47.25C50.15 46.93 48.9 46.77 49.03 46.77L39.34 46.77C38.52 46.77 36.46 46.83 34.52 46.4C32.34 45.93 30.59 45.51 30.34 45.14C30.77 44.82 31.21 44.87 31.21 44.66C32.65 44.76 36.27 43.71 39.9 42.65C43.77 41.49 45.71 40.43 45.71 39.48C45.71 37.73 44.9 36.36 43.27 35.35C41.65 34.35 39.46 33.82 36.71 33.82C33.46 33.82 30.77 34.45 28.52 35.62C25.9 37.04 24.59 39.05 24.59 41.65C24.59 42.86 24.84 44.24 25.46 45.66C25.96 46.99 28.27 47.99 32.27 48.84C35.34 49.42 38.15 49.74 40.65 49.74L51.4 49.74C52.65 49.74 53.65 49.37 54.4 48.63ZM37.27 94.86L24.96 94.96L25.46 85.76C25.52 84.18 25.84 83.17 25.96 82.54L27.27 75.93C27.52 74.39 27.71 73.49 27.84 73.18L27.34 70.06C25.96 70.59 25.27 70.96 25.15 71.17C24.9 72.07 24.77 72.75 24.65 73.12C23.52 78.09 22.77 82.17 22.4 85.45C21.71 91.95 21.02 95.33 20.4 95.65C19.34 96.13 16.09 96.71 10.58 97.29C6.15 97.82 3.9 98.61 3.9 99.67C3.9 99.93 4.4 100.36 5.33 101.1C6.33 101.78 6.96 102.15 7.27 102.15L8.58 102.15C8.52 101.52 8.65 101.1 8.9 100.94C9.71 100.41 10.21 100.15 10.4 100.15C11.21 100.04 11.83 100.04 12.27 99.99C14.58 99.67 15.77 99.51 15.77 99.51C18.02 99.3 19.34 99.14 19.65 99.04C20.09 99.3 20.27 99.67 20.27 100.2C20.27 101.04 20.21 102.21 19.96 103.58C19.77 105.01 19.65 106.12 19.65 106.97C19.65 109.29 20.09 111.3 20.9 113.05C21.59 113.31 22.02 113.47 22.21 113.47C23.02 112.57 23.4 111.46 23.4 110.09C23.4 109.82 23.34 109.29 23.27 108.39C23.15 107.55 23.09 106.97 23.09 106.7C23.09 105.65 23.21 104.85 23.27 104.27C23.59 101.84 23.71 100.36 23.77 99.83C23.96 99.25 24.46 98.82 25.27 98.51C28.59 97.24 32.59 96.55 37.27 96.55ZM72.53 104.38C72.53 105.75 72.21 106.76 71.53 107.34C70.09 108.66 67.59 109.66 64.15 110.3C60.34 111.04 57.4 111.36 55.28 111.36C53.9 111.36 52.09 111.04 49.84 110.4C47.21 109.66 45.9 108.82 45.9 107.92C45.9 106.81 48.34 104.8 53.09 101.89C54.46 101.1 56.03 100.52 57.78 100.2C62.28 99.46 64.65 99.09 64.9 99.09C66.53 99.09 68.15 99.62 69.84 100.73C71.65 101.89 72.53 103.11 72.53 104.38ZM75.65 104.59C75.65 103.9 75.34 102.84 74.65 101.47C73.96 100.09 73.34 99.14 72.71 98.61C72.15 98.14 71.15 97.55 69.59 96.97C68.03 96.39 66.84 96.07 66.09 96.07C63.21 96.07 60.09 96.5 56.84 97.29C52.96 98.24 50.28 99.41 48.78 100.94C46.53 102.84 44.9 104.11 43.84 104.75C42.59 105.7 41.96 106.65 41.96 107.55C41.96 109.61 43.59 111.3 46.9 112.68C49.59 113.79 52.34 114.37 55.09 114.37C57.46 114.37 60.96 113.84 65.4 112.84C70.53 111.67 73.46 110.51 74.34 109.29C75.21 108.02 75.65 106.44 75.65 104.59ZM90.59 102.15C90.59 102 90.53 101.89 90.53 101.89C90.53 102 90.59 102.05 90.59 102.15ZM114.47 100.04C114.47 99.51 114.22 98.98 113.66 98.4C113.16 97.87 112.59 97.61 111.97 97.61C109.72 97.61 106.34 98.88 101.72 101.36C98.47 103.16 95.28 105.17 92.34 107.39C91.47 107.97 90.72 108.55 90.09 109.08L90.15 108.71C90.47 104.85 90.59 102.58 90.53 101.89C90.4 101.47 90.03 101.15 89.53 100.94C87.59 101.36 86.65 104.8 86.65 111.3C86.65 111.73 86.65 112.2 86.72 112.57C86.72 112.63 86.72 112.68 86.72 112.68L86.72 114.42C88.15 114.42 89.09 114.21 89.59 113.74C90.84 112.63 91.65 111.83 92.09 111.36C94.84 108.76 97.15 106.86 99.09 105.65C100.22 104.96 101.9 104.11 104.28 103.05C106.97 101.84 108.72 101.2 109.59 101.2C110.28 101.2 110.59 101.73 110.59 102.74C110.59 103.27 110.34 104.59 109.78 106.76C109.28 108.92 109.03 110.3 109.03 110.83C109.03 111.83 109.22 113 109.59 114.26C110.09 115.96 110.78 116.8 111.53 116.8C112.16 116.8 112.47 116.7 112.53 116.38C113.09 112.63 113.47 109.24 113.84 106.23C114.28 102.47 114.47 100.41 114.47 100.04Z" /></svg>